<?xml version="1.0" encoding="UTF-8"?><svg id="a" xmlns="http://www.w3.org/2000/svg" viewBox="0 0 1600 1600"><path d="M1498.57,700.04c-.03-74.69-.07-151.63-.07-151.63-.75-27.48-9.97-54.58-25-77.02-32.27-48.64-90.7-76.16-148.23-75.77h-21.05c-139.2,.15-367.55-.21-505.29,0-10.82-.04-40.17,.06-50.53,0h-8.42c-19.71-.33-39.21,5.38-55.38,17.6-3.63,2.65-7.05,5.71-10.21,9.1-15.79-16.43-37.97-26.69-62.5-26.69h-50.84c-128.03,0-232.18,104.16-232.18,232.18h0c0,72.16,33.1,136.74,84.9,179.36H101.37v53.92c0,189.32,154.03,343.35,343.35,343.35h354c123.79,0,224.5-100.71,224.5-224.5v-42.88c0-68.72-31.05-130.31-79.84-171.53,136.48,.27,335.36-.23,451.35-.27,3.05,.18,27.89,2.1,41.41,23.27,7.96,12.47,7.89,25.17,7.58,30.25h54.9s-.03-59.46-.05-116.76h.05c0-.66-.05-1.31-.05-1.98Zm-1116.89-72.23c0-98.9,80.46-179.36,179.36-179.36h50.84c18.7,0,33.92,15.22,33.92,33.92v324.8h-84.75c-98.9,0-179.36-80.46-179.36-179.36Zm271.78,523.81h-208.74c-160.2,0-290.52-130.33-290.52-290.53v-1.1h365.5c73.76,0,133.76,60,133.76,133.76v157.86Zm52.82-601.48c0-10.6,0-19.13,0-21.48-.02-10.93,.02-40.01,0-50.53v-4.16c.02-13.93,14.13-24.25,27.86-25.32,31.96,0,577.71-.28,594.71-.11,56.63,.24,115.18,42.14,116.85,101.63,0,0,.01,29.09,.01,38.58-31.16-27.42-73.52-44.34-120.17-44.34H737.96c-11.2,0-21.89,2.05-31.68,5.74Zm264.12,386.92v42.88c0,94.66-77.01,171.68-171.67,171.68h-92.44v-386.23h92.44c94.66,0,171.67,77.01,171.67,171.67Zm-37.16-224.5c-22.02,0-79.8,0-101.06,0-28.41,.81-57.09-6.45-80.41-22.81-24.15-16.39-41.62-42.8-44.91-71.75,2.78-11.82,15.66-20.78,31.11-20.78h587.59c65.75,0,119.3,46.23,120.21,103.34,0,5.92,0,6.26,0,12H933.24Z"/></svg>