<?xml version="1.0" encoding="UTF-8"?><svg id="a" xmlns="http://www.w3.org/2000/svg" viewBox="0 0 1721.37 486.31"><g><path d="M713.16,201.78h-43.87v-26.06h117.56v26.06h-43.87v109.69h-29.81v-109.69Z"/><path d="M832.03,175.72h42.56c16.12,0,31.31,2.25,42.19,9,9.94,6.19,16.31,16.31,16.31,31.87,0,17.44-9.56,31.69-27.56,37.5l38.25,57.37h-34.31l-34.31-53.62h-13.31v53.62h-29.81V175.72Zm44.81,59.81c8.06,0,14.25-.94,18.75-3.19,5.06-2.63,7.69-7.12,7.69-13.69s-2.25-10.5-7.69-13.31c-4.69-2.44-12-3.56-22.31-3.56h-11.44v33.75h15Z"/><path d="M978.47,243.59c0-39.56,30.56-69.94,70.88-69.94s70.87,30.38,70.87,69.94-30.56,69.94-70.87,69.94-70.88-30.38-70.88-69.94Zm111.94,0c0-24-17.62-42.94-41.06-42.94s-41.06,18.94-41.06,42.94,17.62,42.94,41.06,42.94,41.06-18.94,41.06-42.94Z"/><path d="M1276.78,304.53c-11.62,6.19-26.25,9-39.75,9-43.69,0-73.87-30.19-73.87-69.75s30.19-70.12,73.87-70.12c13.69,0,27,3.19,37.69,8.44v30.19c-9.94-6.75-23.63-11.81-37.5-11.81-26.25,0-44.25,18.38-44.25,42.94s17.44,43.31,45.38,43.31c14.06,0,27.19-4.87,38.44-12.56v30.37Z"/><path d="M1369.96,175.72h28.88l55.12,135.75h-31.87l-10.88-28.5h-54.75l-11.06,28.5h-30.56l55.12-135.75Zm-4.31,83.81h36.56l-5.62-15.19c-3.94-10.69-8.81-24.19-12.37-34.5h-.38c-3.56,10.31-8.44,23.81-12.75,35.25l-5.44,14.44Z"/><path d="M1496.9,175.72h29.81v60l.37,.19,47.44-60.19h35.44l-51.38,63,55.69,72.75h-36.75l-50.44-67.88-.37,.19v67.69h-29.81V175.72Z"/><path d="M1653.27,175.72h29.81v135.75h-29.81V175.72Z"/></g><path d="M532.11,207.83c-.01-26.4-.03-53.59-.03-53.59-.27-9.71-3.52-19.29-8.84-27.22-11.4-17.19-32.06-26.92-52.39-26.78h-7.44c-49.2,.05-129.91-.07-178.59,0-3.82-.01-14.2,.02-17.86,0h-2.98c-6.97-.11-13.86,1.9-19.57,6.22-1.28,.93-2.49,2.02-3.61,3.22-5.58-5.81-13.42-9.43-22.09-9.43h-17.97c-45.25,0-82.06,36.81-82.06,82.06h0c0,25.51,11.7,48.33,30.01,63.39H38.29v19.06c0,66.91,54.44,121.35,121.35,121.35h125.12c43.75,0,79.35-35.59,79.35-79.35v-15.16c0-24.29-10.97-46.06-28.22-60.62,48.24,.09,118.53-.08,159.52-.1,1.08,.06,9.86,.74,14.64,8.22,2.81,4.41,2.79,8.89,2.68,10.69h19.4s0-21.02-.02-41.27h.02c0-.23-.02-.46-.02-.7Zm-394.75-25.53c0-34.95,28.44-63.39,63.39-63.39h17.97c6.61,0,11.99,5.38,11.99,11.99v114.8h-29.96c-34.96,0-63.39-28.44-63.39-63.39Zm96.06,185.13h-73.78c-56.62,0-102.68-46.06-102.68-102.68v-.39H186.14c26.07,0,47.28,21.21,47.28,47.28v55.8Zm18.67-212.59c0-3.75,0-6.76,0-7.59,0-3.86,0-14.14,0-17.86v-1.47c0-4.92,4.99-8.57,9.85-8.95,11.3,0,204.19-.1,210.19-.04,20.02,.09,40.71,14.9,41.3,35.92,0,0,0,10.28,0,13.64-11.01-9.69-25.98-15.67-42.47-15.67h-207.68c-3.96,0-7.74,.72-11.2,2.03Zm93.35,136.75v15.16c0,33.46-27.22,60.68-60.68,60.68h-32.67V230.92h32.67c33.46,0,60.68,27.22,60.68,60.68Zm-13.13-79.35c-7.78,0-28.2,0-35.72,0-10.04,.28-20.18-2.28-28.42-8.06-8.53-5.79-14.71-15.13-15.87-25.36,.98-4.18,5.54-7.35,10.99-7.35h207.68c23.24,0,42.17,16.34,42.49,36.52,0,2.09,0,2.21,0,4.24h-181.15Z"/></svg>